<svg xmlns="http://www.w3.org/2000/svg" version="1.1" xmlns:xlink="http://www.w3.org/1999/xlink" xmlns:svgjs="http://svgjs.dev/svgjs" width="1500" height="1144" viewBox="0 0 1500 1144"><g transform="matrix(1,0,0,1,-0.48453058258269266,-1.8451612903226078)"><svg viewBox="0 0 325 248" data-background-color="#ffffff" preserveAspectRatio="xMidYMid meet" height="1144" width="1500" xmlns="http://www.w3.org/2000/svg" xmlns:xlink="http://www.w3.org/1999/xlink"><g id="tight-bounds" transform="matrix(1,0,0,1,0.10498162622624818,0.4000000000000057)"><svg viewBox="0 0 324.7900367429657 247.2" height="247.2" width="324.7900367429657"><g><svg viewBox="0 0 395.52 301.0330765699436" height="247.2" width="324.7900367429657"><g transform="matrix(1,0,0,1,0,181.06746708692643)"><svg viewBox="0 0 395.52 119.96560948301719" height="119.96560948301719" width="395.52"><g id="textblocktransform"><svg viewBox="0 0 395.52 119.96560948301719" height="119.96560948301719" width="395.52" id="textblock"><g><svg viewBox="0 0 395.52 64.70371736812147" height="64.70371736812147" width="395.52"><g transform="matrix(1,0,0,1,0,0)"><svg width="395.52" viewBox="0 -36.38 233.21105262684802 38.155" height="64.70371736812147" data-palette-color="#000000"><path d="M0-11.57L0-11.57Q0-12.11 0.15-12.55 0.29-12.99 0.2-13.67L0.2-13.67Q1.71-16.89 3.64-19.65 5.57-22.41 8.25-24.51L8.25-24.51Q8.69-24.85 8.96-25.22 9.23-25.59 9.5-25.93 9.77-26.27 10.11-26.54 10.45-26.81 10.99-26.9L10.99-26.9Q12.21-28.32 13.92-29.49 15.63-30.66 17.48-31.74 19.34-32.81 21.22-33.94 23.1-35.06 24.61-36.38L24.61-36.38Q25.15-36.04 25.46-36.16 25.78-36.28 26.12-36.18L26.12-36.18Q26.56-35.25 27.27-34.89 27.98-34.52 28.74-34.16 29.49-33.79 30.15-33.28 30.81-32.76 31.15-31.88L31.15-31.88Q30.81-31.88 30.83-31.64 30.86-31.4 30.96-31.1 31.05-30.81 31.05-30.57 31.05-30.32 30.62-30.32L30.62-30.32Q30.62-29.98 30.96-29.98 31.3-29.98 31.3-29.64L31.3-29.64Q31.3-29.35 31.18-29.17 31.05-29 31.15-28.61L31.15-28.61Q29.98-27.83 28.54-27.12 27.1-26.42 25.51-25.63 23.93-24.85 22.29-23.95 20.65-23.05 19.04-21.88L19.04-21.88Q17.43-20.7 15.8-19.29 14.16-17.87 12.65-16.28 11.13-14.7 9.81-13.01 8.5-11.33 7.57-9.72L7.57-9.72Q7.67-9.47 7.84-9.28 8.01-9.08 8.11-8.84L8.11-8.84Q9.96-8.74 11.57-8.86 13.18-8.98 14.79-8.64L14.79-8.64Q14.99-8.79 15.04-9.03 15.09-9.28 15.33-9.38L15.33-9.38Q18.65-9.72 21.53-10.47 24.41-11.23 27.39-12.01L27.39-12.01Q26.51-12.35 25.83-12.55L25.83-12.55Q25.54-12.84 25.85-13.06 26.17-13.28 26.37-13.53L26.37-13.53Q25.59-13.96 25.07-14.7 24.56-15.43 24.46-16.6L24.46-16.6Q24.8-16.89 24.8-17.29 24.8-17.68 24.46-17.92L24.46-17.92Q24.22-18.02 24.17-17.92 24.12-17.82 24.1-17.72 24.07-17.63 24-17.53 23.93-17.43 23.73-17.53L23.73-17.53Q23.78-18.07 23.97-18.41 24.17-18.75 24.27-19.24L24.27-19.24 28.32-21.92Q28.96-21.44 29.88-20.9 30.81-20.36 31.84-19.82 32.86-19.29 33.94-18.73 35.01-18.16 35.94-17.63L35.94-17.63Q36.82-17.24 37.45-16.67 38.09-16.11 38.67-15.5 39.26-14.89 39.84-14.31 40.43-13.72 41.26-13.33L41.26-13.33Q41.16-12.55 41.36-12.06 41.55-11.57 41.46-10.89L41.46-10.89Q40.53-9.23 39.21-8.08 37.89-6.93 36.25-6.1 34.62-5.27 32.76-4.71 30.91-4.15 28.96-3.64 27-3.13 25.02-2.56 23.05-2 21.14-1.27L21.14-1.27Q20.31-1.27 19.73-1.22 19.14-1.17 18.6-1.07 18.07-0.98 17.53-0.88 16.99-0.78 16.36-0.73L16.36-0.73Q16.11-0.78 16.04-0.63 15.97-0.49 15.82-0.39L15.82-0.39Q14.84-0.24 14.06-0.24 13.28-0.24 12.74-0.24L12.74-0.24Q12.06-0.24 11.33-0.05 10.6 0.15 9.96 0.1L9.96 0.1Q5.57-0.1 3.08-3.03 0.59-5.96 0.34-11.08L0.34-11.08Q0.39-11.33 0.24-11.4 0.1-11.47 0-11.57ZM65.38-4.3L65.28-4.1Q64.99-3.27 64.43-2.42 63.86-1.56 63.11-0.9 62.35-0.24 61.42 0.2 60.5 0.63 59.47 0.68L59.47 0.68Q58.84 0.54 58.62 0.37 58.4 0.2 58.15 0.05L58.15 0.05Q58.01-0.05 57.88-0.12 57.76-0.2 57.66-0.24L57.66-0.24 57.08-0.49 57.27-1.12Q57.37-1.51 57.22-1.73 57.08-1.95 56.64-2.34L56.64-2.34Q56.49-2.49 56.35-2.64 56.2-2.78 56.1-2.93L56.1-2.93 55.27-3.86 56.59-4.2Q57.81-4.54 58.23-5.08 58.64-5.62 58.54-6.88L58.54-6.88Q57.57-7.08 56.91-6.93 56.25-6.79 55.56-6.59L55.56-6.59Q54.69-6.35 53.78-6.18 52.88-6.01 51.8-6.01L51.8-6.01Q51.41-6.01 51.07-6.03 50.73-6.05 50.34-6.1L50.34-6.1 49.85-6.2Q49.75-6.74 49.66-6.81 49.56-6.88 49.46-6.98L49.46-6.98Q49.22-7.23 48.95-7.64 48.68-8.06 48.83-8.69L48.83-8.69Q48.58-9.13 48.53-9.57L48.53-9.57Q48.24-8.98 48.09-8.35L48.09-8.35 47.9-7.86 47.41-7.76Q47.31-7.71 47.26-7.54 47.21-7.37 47.21-7.28L47.21-7.28 46.97-6.45Q46.87-6.35 46.77-6.27 46.68-6.2 46.58-6.1L46.58-6.1Q46.48-5.66 46.34-5.22 46.19-4.79 46.04-4.39L46.04-4.39Q45.8-3.76 45.63-3.15 45.46-2.54 45.51-1.95L45.51-1.95 45.31-1.42Q45.07-1.12 44.77-0.95 44.48-0.78 44.19-0.63L44.19-0.63Q44.09-0.54 43.92-0.46 43.75-0.39 43.65-0.34L43.65-0.34 43.5 0.2 42.92 0.29Q42.38 0.39 42.16 0.44 41.94 0.49 41.65 0.49L41.65 0.49 41.16 0.44Q40.62 0 40.33-0.27 40.04-0.54 39.65-0.78L39.65-0.78Q39.21-1.37 39.16-1.66 39.11-1.95 39.06-2.2L39.06-2.2Q38.96-2.49 38.94-2.69 38.91-2.88 38.82-2.98L38.82-2.98 38.18-3.56 38.72-4 38.77-4.83Q39.74-7.32 40.84-9.62 41.94-11.91 43.11-14.31L43.11-14.31Q43.5-15.09 43.87-15.87 44.24-16.65 44.63-17.43L44.63-17.43Q44.58-17.58 44.58-17.77 44.58-17.97 44.68-18.21L44.68-18.21Q45.21-19.04 45.55-19.7 45.9-20.36 46.24-21.04L46.24-21.04Q46.63-21.88 47.04-22.66 47.46-23.44 48.09-24.27L48.09-24.27 48.87-24.61Q49.02-24.66 49.22-24.73 49.41-24.8 49.66-24.8L49.66-24.8 50.39-24.71Q51.76-25.34 52.78-26.49 53.81-27.64 54.88-29.25L54.88-29.25 55.37-29.93 56-29.54Q56.25-29.39 56.69-29.27 57.13-29.15 57.61-29L57.61-29Q58.49-28.81 59.27-28.56 60.06-28.32 60.54-27.83L60.54-27.83Q60.84-27.05 60.89-26.66 60.94-26.27 61.03-25.88L61.03-25.88Q61.18-25.05 61.3-24.22 61.42-23.39 61.47-22.36L61.47-22.36Q61.72-21.53 61.89-20.73 62.06-19.92 62.2-19.09L62.2-19.09Q62.45-17.92 62.69-16.82 62.94-15.72 63.33-14.75L63.33-14.75Q63.72-14.75 63.82-14.7L63.82-14.7Q64.06-14.79 64.33-14.84 64.6-14.89 64.94-14.94L64.94-14.94 65.48-14.99 65.67-14.5Q65.72-14.26 66.16-14.01L66.16-14.01Q66.79-13.96 67.09-13.75 67.38-13.53 67.62-13.28L67.62-13.28Q67.82-13.09 68.02-12.99L68.02-12.99 68.75-12.7 68.36-11.96Q67.87-11.08 66.97-10.28 66.06-9.47 64.94-8.94L64.94-8.94Q64.99-8.64 65.01-8.37 65.04-8.11 65.13-7.81L65.13-7.81Q65.28-6.98 65.38-6.1 65.48-5.22 65.38-4.3L65.38-4.3ZM51.17-12.55L51.17-12.55Q52.63-12.65 53.83-12.77 55.03-12.89 56.49-13.18L56.49-13.18Q56.15-14.65 55.76-16.24 55.37-17.82 54.93-19.38L54.93-19.38 54.64-18.9Q53.66-17.87 52.76-16.6 51.85-15.33 51.22-14.21L51.22-14.21Q50.93-13.77 50.63-13.33 50.34-12.89 50.1-12.45L50.1-12.45Q50.39-12.5 50.66-12.5 50.93-12.5 51.17-12.55ZM93.79-23.49L93.79-23.49Q92.57-23.49 91.16-23.32 89.74-23.14 88.37-22.95L88.37-22.95Q87.4-22.8 86.49-22.71 85.59-22.61 84.86-22.56L84.86-22.56Q84.52-21.48 84.17-20.65 83.83-19.82 83.44-19.04L83.44-19.04Q83.05-18.21 82.73-17.36 82.42-16.5 82.12-15.53L82.12-15.53Q81.64-14.75 81.32-14.09 81-13.43 80.81-12.6L80.81-12.6Q80.22-11.87 79.93-11.06 79.63-10.25 79.49-9.67L79.49-9.67 79.29-9.08Q79-8.79 78.95-8.62 78.9-8.45 78.71-8.3L78.71-8.3Q78.66-7.76 78.36-7.23L78.36-7.23Q78.27-6.98 78.22-6.76 78.17-6.54 78.17-6.45L78.17-6.45Q78.17-5.96 77.92-5.81L77.92-5.81Q77.97-5.57 77.92-5.3 77.88-5.03 77.83-4.79L77.83-4.79Q77.68-4.2 77.73-3.86L77.73-3.86Q77.88-3.66 78-3.52 78.12-3.37 78.17-3.13L78.17-3.13Q78.46-2.93 78.61-2.88L78.61-2.88Q78.8-2.73 79.19-2.54L79.19-2.54 79.63-2.05Q79.88-0.63 79.19 0.2L79.19 0.2Q78.46 1.12 76.7 1.12L76.7 1.12 76.12 1.12Q75.87 0.88 75.83 0.73L75.83 0.73Q75.43 0.59 75.19 0.49 74.95 0.39 74.75 0.1L74.75 0.1Q74.12-0.2 73.73-0.39L73.73-0.39 73.29-0.63Q73.29-1.17 73.29-1.22L73.29-1.22Q72.94-1.66 72.77-2.2 72.6-2.73 72.5-3.27L72.5-3.27Q72.41-3.71 72.29-4.1 72.16-4.49 71.97-4.79L71.97-4.79Q71.87-7.62 72.5-9.57 73.14-11.52 73.82-13.33L73.82-13.33Q74.21-14.31 74.6-15.31 75-16.31 75.29-17.38L75.29-17.38 75.73-17.87Q76.07-18.65 76.29-19.17 76.51-19.68 76.75-20.21L76.75-20.21Q76.9-20.56 77.02-20.87 77.14-21.19 77.24-21.44L77.24-21.44Q76.95-21.44 76.7-21.41 76.46-21.39 76.22-21.34L76.22-21.34Q75.92-21.29 75.68-21.26 75.43-21.24 75.19-21.24L75.19-21.24Q74.85-21.24 74.7-21.29L74.7-21.29Q74.16-21.04 73.53-21.04L73.53-21.04 73.04-21.04Q72.9-21.04 72.77-21.07 72.65-21.09 72.55-21.09L72.55-21.09Q72.07-21.09 71.77-20.95L71.77-20.95Q71.19-20.95 70.65-20.95L70.65-20.95 70.16-20.95Q70.06-20.95 69.92-20.92 69.77-20.9 69.67-20.9L69.67-20.9Q69.33-20.9 68.94-20.97 68.55-21.04 68.11-21.29L68.11-21.29Q67.52-22.07 67.33-22.12L67.33-22.12 66.89-22.71Q66.84-23 66.74-23.27 66.65-23.54 66.55-23.88L66.55-23.88Q66.35-24.37 66.18-24.93 66.01-25.49 66.01-26.27L66.01-26.27Q66.06-26.66 66.21-26.86 66.35-27.05 66.45-27.2L66.45-27.2 66.6-27.93 67.23-27.88 68.6-27.88Q70.16-27.88 71.77-28 73.38-28.13 75.09-28.27L75.09-28.27Q76.07-28.37 77.07-28.47 78.07-28.56 79.15-28.66L79.15-28.66Q79.34-29.1 79.54-29.49L79.54-29.49 80.02-29.74Q80.9-29.79 81.27-29.52 81.64-29.25 81.88-29L81.88-29Q82.95-29.1 84.05-29.22 85.15-29.35 86.27-29.54L86.27-29.54Q87.93-29.79 89.62-29.98 91.3-30.18 92.87-30.18L92.87-30.18Q93.55-30.18 94.18-30.13 94.82-30.08 95.36-29.98L95.36-29.98 95.84-29.64Q95.99-29.35 96.26-29.1 96.53-28.86 96.82-28.61L96.82-28.61Q97.41-28.08 97.99-27.34 98.58-26.61 98.43-25.2L98.43-25.2Q98.04-24.61 97.85-24.51L97.85-24.51 97.41-23.93 96.92-23.97Q96.63-23.97 96.38-23.9 96.14-23.83 95.89-23.73L95.89-23.73Q95.7-23.63 95.5-23.56 95.31-23.49 95.06-23.44L95.06-23.44Q94.62-23.44 94.36-23.46 94.09-23.49 93.79-23.49ZM114.98-4.74L114.98-4.74Q115.08-3.47 114.69-2.64 114.3-1.81 113.62-1.22 112.93-0.63 112.05-0.29 111.17 0.05 110.34 0.34L110.34 0.34Q109.95 0.1 109.59-0.17 109.22-0.44 108.73-0.59L108.73-0.59Q108.1-1.76 107.51-2.66 106.93-3.56 106.97-4.74L106.97-4.74Q106.97-4.79 107.05-5.27 107.12-5.76 107.24-6.35 107.37-6.93 107.44-7.45 107.51-7.96 107.51-8.01L107.51-8.01Q106.39-7.91 105.17-7.52 103.95-7.13 102.8-6.59 101.65-6.05 100.65-5.52 99.65-4.98 99.02-4.59L99.02-4.59Q99.02-4.44 98.82-3.88 98.63-3.32 98.33-2.71 98.04-2.1 97.7-1.61 97.36-1.12 97.01-1.12L97.01-1.12Q97.06-0.98 97.16-0.83 97.26-0.68 97.16-0.44L97.16-0.44Q96.48-0.24 95.94 0.07 95.4 0.39 94.82 0.61 94.23 0.83 93.55 0.83 92.86 0.83 91.94 0.34L91.94 0.34Q91.94 0.05 91.69-0.17 91.45-0.39 91.18-0.56 90.91-0.73 90.72-0.85 90.52-0.98 90.52-1.07L90.52-1.07Q90.28-1.03 90.32-1.42 90.37-1.81 90.72-1.61L90.72-1.61Q90.18-2.29 90.06-2.81 89.93-3.32 89.49-4.1L89.49-4.1Q89.59-4.2 89.67-4.44 89.74-4.69 89.79-4.88 89.84-5.08 89.93-5.18 90.03-5.27 90.18-5.13L90.18-5.13Q90.08-5.57 90.18-5.86 90.28-6.15 90.37-6.4 90.47-6.64 90.52-6.88 90.57-7.13 90.37-7.42L90.37-7.42Q91.15-8.5 91.4-9.74 91.64-10.99 91.69-12.01L91.69-12.01Q92.03-12.35 92.3-12.99 92.57-13.62 92.72-14.28 92.86-14.94 92.84-15.55 92.81-16.16 92.67-16.55L92.67-16.55Q92.72-16.8 93.21-16.7L93.21-16.7Q93.5-18.31 93.62-20.34 93.74-22.36 94.04-24.19 94.33-26.03 95.01-27.42 95.7-28.81 97.21-29.25L97.21-29.25Q97.5-28.22 97.97-27.44 98.43-26.66 98.99-25.95 99.55-25.24 100.11-24.51 100.68-23.78 101.16-22.85L101.16-22.85Q101.12-21.92 100.97-20.7 100.82-19.48 100.6-18.21 100.38-16.94 100.16-15.77 99.94-14.6 99.75-13.77L99.75-13.77Q99.8-13.53 100.02-13.48 100.24-13.43 100.09-13.04L100.09-13.04Q101.26-13.33 102.53-13.57 103.8-13.82 105.07-14.11 106.34-14.4 107.54-14.77 108.73-15.14 109.76-15.67L109.76-15.67Q110-17.58 110.39-19.48 110.78-21.39 110.49-23.39L110.49-23.39Q110.73-23.58 110.88-23.88 111.03-24.17 111.37-24.27L111.37-24.27Q111.13-25.2 111.17-26.22 111.22-27.25 111.54-28.17 111.86-29.1 112.47-29.76 113.08-30.42 113.96-30.62L113.96-30.62Q114.49-29.83 114.89-28.93 115.28-28.03 115.69-27.12 116.11-26.22 116.57-25.42 117.03-24.61 117.77-24.02L117.77-24.02Q117.91-22.61 117.99-21.09 118.06-19.58 118.11-18.02L118.11-18.02Q117.72-16.16 117.25-14.43 116.79-12.7 116.59-10.74L116.59-10.74Q116.25-10.35 116.06-9.86 115.86-9.38 115.67-8.86 115.47-8.35 115.23-7.89 114.98-7.42 114.64-7.08L114.64-7.08Q114.84-6.49 114.71-5.98 114.59-5.47 114.98-4.74ZM146.33-27.49L146.33-27.49Q146.38-27.15 146.35-26.98 146.33-26.81 146.3-26.66 146.28-26.51 146.28-26.34 146.28-26.17 146.38-25.83L146.38-25.83Q145.35-24.17 144.01-23.56 142.67-22.95 141.1-22.68 139.54-22.41 137.91-22.12 136.27-21.83 134.66-20.85L134.66-20.85Q134.02-21.09 133.51-20.85 133-20.61 132.02-20.7L132.02-20.7Q131.73-20.41 131.29-20.29 130.85-20.17 130.41-20.02L130.41-20.02Q130.61-19.58 130.58-19.12 130.56-18.65 130.7-18.36L130.7-18.36Q132.41-18.21 134.49-18.41 136.56-18.6 138.56-18.65L138.56-18.65Q138.61-18.41 138.52-18.33 138.42-18.26 138.47-18.07L138.47-18.07Q138.81-17.82 139.15-17.46 139.49-17.09 139.83-16.75 140.18-16.41 140.54-16.19 140.91-15.97 141.4-16.02L141.4-16.02Q141.59-15.63 141.66-15.16 141.74-14.7 141.54-14.21L141.54-14.21Q140.76-13.67 139.98-13.11 139.2-12.55 138.34-12.11 137.49-11.67 136.54-11.4 135.59-11.13 134.41-11.18L134.41-11.18Q134.17-11.18 134.05-11.18 133.93-11.18 133.73-11.33L133.73-11.33Q133.34-11.08 132.63-11.18 131.92-11.28 131.53-11.04L131.53-11.04Q131-11.28 130.24-11.25 129.48-11.23 128.9-11.43L128.9-11.43Q128.12-10.4 127.48-9.23 126.85-8.06 126.36-6.74L126.36-6.74Q128.02-6.49 129.12-6.54 130.21-6.59 131.19-6.71 132.17-6.84 133.19-6.96 134.22-7.08 135.78-7.03L135.78-7.03Q136.76-7.57 138.1-7.74 139.44-7.91 140.57-8.3L140.57-8.3Q140.96-8.15 141.25-7.79 141.54-7.42 141.81-7.1 142.08-6.79 142.37-6.54 142.67-6.3 143.11-6.35L143.11-6.35Q143.3-6.15 143.37-5.88 143.45-5.62 143.5-5.37 143.54-5.13 143.67-4.96 143.79-4.79 144.08-4.83L144.08-4.83Q143.35-3.22 142.4-2.37 141.45-1.51 140.22-1.07 139-0.63 137.51-0.39 136.03-0.15 134.22 0.2L134.22 0.2Q133.78 0.29 133.49 0.17 133.19 0.05 132.8 0.05L132.8 0.05Q131.68 0.29 130.12 0.49 128.55 0.68 126.94 0.63 125.33 0.59 123.87 0.22 122.4-0.15 121.47-1.07L121.47-1.07Q121.08-1.42 120.96-1.88 120.84-2.34 120.3-2.59L120.3-2.59Q120.25-3.22 120.11-4 119.96-4.79 119.81-5.64 119.67-6.49 119.59-7.32 119.52-8.15 119.67-8.84L119.67-8.84Q119.81-9.57 120.28-10.16 120.74-10.74 120.6-11.43L120.6-11.43Q120.84-11.47 120.89-11.69 120.94-11.91 121.28-11.87L121.28-11.87Q121.57-12.74 121.91-13.53 122.26-14.31 122.62-15.04 122.99-15.77 123.35-16.53 123.72-17.29 124.06-18.21L124.06-18.21Q123.38-18.85 123.06-19.6 122.74-20.36 122.6-21.12 122.45-21.88 122.35-22.68 122.26-23.49 122.01-24.32L122.01-24.32Q122.5-25.05 123.21-25.51 123.92-25.98 124.75-26.27 125.58-26.56 126.55-26.76 127.53-26.95 128.6-27.2L128.6-27.2Q130.56-27.83 132.09-28.17 133.63-28.52 135.12-28.74 136.61-28.96 138.22-29.15 139.83-29.35 141.88-29.74L141.88-29.74Q142.32-29.3 142.71-29.3L142.71-29.3Q142.91-29.74 143.18-29.57 143.45-29.39 143.4-29.83L143.4-29.83Q143.89-29 144.64-28.44 145.4-27.88 146.33-27.49ZM152.53-5.08L152.53-5.08Q151.99-3.13 151.57-2.12 151.16-1.12 150.33-0.05L150.33-0.05Q149.69-0.15 149.45 0.1 149.21 0.34 148.91 0.54L148.91 0.54Q148.47 0.63 148.28 0.54 148.08 0.44 147.94 0.32 147.79 0.2 147.57 0.07 147.35-0.05 146.91-0.05L146.91-0.05Q146.81-0.44 146.69-0.78 146.57-1.12 146.03-1.03L146.03-1.03Q146.13-1.42 146.08-1.68 146.03-1.95 145.96-2.17 145.89-2.39 145.84-2.61 145.79-2.83 145.89-3.17L145.89-3.17Q145.64-3.17 145.5-3.52 145.35-3.86 145.15-4.2L145.15-4.2Q145.3-5.08 145.45-5.86 145.59-6.64 145.81-7.32 146.03-8.01 146.18-8.69 146.33-9.38 146.03-10.11L146.03-10.11Q146.23-9.96 146.33-10.18 146.42-10.4 146.47-10.77 146.52-11.13 146.52-11.5 146.52-11.87 146.47-12.11L146.47-12.11Q146.96-13.38 147.28-14.72 147.59-16.06 147.86-17.38 148.13-18.7 148.43-19.97 148.72-21.24 149.21-22.31L149.21-22.31Q149.74-22.41 150.4-22.19 151.06-21.97 151.21-21.63L151.21-21.63Q152.48-22.61 153.45-24 154.43-25.39 155.46-26.71 156.48-28.03 157.73-29.05 158.97-30.08 160.88-30.27L160.88-30.27Q161.85-29.54 163.05-28.78 164.25-28.03 165.03-26.81L165.03-26.81Q165.42-26.61 165.69-26.39 165.95-26.17 166.34-25.93L166.34-25.93 166.34-25.34Q166.93-24.8 167.3-24.1 167.66-23.39 167.96-22.58 168.25-21.78 168.54-20.97 168.84-20.17 169.23-19.43L169.23-19.43Q169.13-19.19 169.13-19.02 169.13-18.85 169.2-18.65 169.27-18.46 169.32-18.26 169.37-18.07 169.32-17.72L169.32-17.72Q169.18-15.58 167.93-14.26 166.69-12.94 164.93-12.08 163.17-11.23 161.17-10.64 159.17-10.06 157.56-9.38L157.56-9.38Q157.56-9.18 157.73-9.18 157.9-9.18 157.85-8.94L157.85-8.94Q159.02-8.2 159.7-7.76 160.39-7.32 161-7.03 161.61-6.74 162.32-6.52 163.02-6.3 164.29-6.01L164.29-6.01Q165.56-5.71 166.27-5.54 166.98-5.37 167.57-5.25 168.15-5.13 168.76-5.05 169.37-4.98 170.5-4.88L170.5-4.88Q170.93-4.44 171.25-3.83 171.57-3.22 171.67-2.61 171.76-2 171.72-1.44 171.67-0.88 171.37-0.54L171.37-0.54Q171.42-0.39 171.59-0.42 171.76-0.44 171.96-0.39L171.96-0.39Q171.67-0.2 171.47 0.1 171.28 0.39 171.08 0.68 170.89 0.98 170.64 1.2 170.4 1.42 169.96 1.46L169.96 1.46Q168.44 2.05 166.15 1.54 163.85 1.03 160.34-0.34L160.34-0.34Q158.58-1.03 157.48-1.54 156.38-2.05 155.58-2.56 154.77-3.08 154.11-3.66 153.45-4.25 152.53-5.08ZM159.51-21.83L159.51-21.83Q158.97-21.04 158.31-20.41 157.65-19.78 157.04-19.12 156.43-18.46 155.94-17.65 155.46-16.85 155.26-15.77L155.26-15.77Q156.97-15.97 158.83-16.72 160.68-17.48 162.34-18.16L162.34-18.16Q162.15-19.68 161.29-20.61 160.44-21.53 159.51-21.83ZM174.15-23.93L174.25-24.17Q174.15-24.8 174.01-24.95L174.01-24.95Q174.35-25.83 174.52-26.68 174.69-27.54 174.79-28.32L174.79-28.32Q174.89-29 175.01-29.59 175.13-30.18 175.33-30.71L175.33-30.71Q176.16-30.91 176.57-31.42 176.99-31.93 177.23-32.32L177.23-32.32Q178.11-32.37 178.38-32.08 178.65-31.79 178.99-31.1L178.99-31.1Q179.23-30.57 179.67-29.96 180.11-29.35 180.99-29L180.99-29Q181.14-28.47 181.33-27.98 181.53-27.49 181.77-26.95L181.77-26.95Q182.21-25.93 182.6-24.83 182.99-23.73 183.04-22.75L183.04-22.75Q182.46-21.63 182.14-20.17 181.82-18.7 181.75-17.21 181.67-15.72 181.82-14.36 181.97-12.99 182.31-12.06L182.31-12.06 182.6-11.28 183.68-11.38Q185.43-11.82 186.85-12.38 188.27-12.94 189.49-13.72 190.71-14.5 191.83-15.5 192.95-16.5 194.17-17.87L194.17-17.87Q195.35-19.24 196.27-20.97 197.2-22.71 197.81-24.56 198.42-26.42 198.76-28.27 199.11-30.13 199.2-31.74L199.2-31.74Q200.13-32.18 200.23-33.15L200.23-33.15 200.08-33.79Q199.94-34.03 199.96-34.25 199.99-34.47 200.08-34.67L200.08-34.67Q200.47-35.79 201.74-36.33L201.74-36.33Q202.62-35.74 203.38-35.06 204.14-34.38 204.77-33.69L204.77-33.69Q204.87-32.37 205.16-31.42 205.45-30.47 205.8-29.59L205.8-29.59Q206.14-28.76 206.41-27.98 206.67-27.2 206.77-26.07L206.77-26.07Q206.28-24.61 206.06-23.32 205.84-22.02 205.65-20.61L205.65-20.61 205.55-20.07Q204.67-18.55 203.82-16.97 202.96-15.38 202.43-14.21L202.43-14.21Q202.13-13.92 201.91-13.53 201.69-13.13 201.5-12.74L201.5-12.74Q201.4-12.6 201.23-12.26 201.06-11.91 200.91-11.77L200.91-11.77 199.74-12.21 199.45-10.69 198.67-10.5 198.08-9.81Q196.96-7.86 195.71-6.54 194.47-5.22 192.93-4.2 191.39-3.17 189.46-2.27 187.53-1.37 185.04-0.34L185.04-0.34Q184.07-0.49 183.36-0.51 182.65-0.54 181.97-0.59L181.97-0.59Q181.28-0.59 180.65-0.63 180.01-0.68 179.18-0.78L179.18-0.78Q178.99-1.22 178.65-1.42 178.31-1.61 178.01-1.61L178.01-1.61Q177.04-2.1 176.55-2.98 176.06-3.86 175.52-4.93L175.52-4.93Q175.28-5.52 175.01-6.1 174.74-6.69 174.35-7.23L174.35-7.23 175.33-7.52 174.06-8.98Q173.91-9.13 173.74-9.28 173.57-9.42 173.42-9.62L173.42-9.62 173.42-10.55Q173.23-14.55 173.25-17.94 173.28-21.34 174.15-23.93L174.15-23.93ZM223.91-30.27L223.91-30.27Q225.96-30.03 227.57-29.44 229.18-28.86 230.3-27.88L230.3-27.88Q231.09-26.66 231.79-25.24 232.5-23.83 232.87-22.29 233.23-20.75 233.21-19.14 233.19-17.53 232.5-15.87L232.5-15.87Q231.09-14.11 229.06-13.01 227.03-11.91 224.69-11.23 222.35-10.55 219.83-10.06 217.32-9.57 214.92-9.08L214.92-9.08Q214.97-7.96 214.95-6.71 214.92-5.47 214.7-4.22 214.48-2.98 214.05-1.81 213.61-0.63 212.87 0.34L212.87 0.34Q212.04 0.34 211.16 0.56 210.29 0.78 209.6 0.93L209.6 0.93Q209.26 0.73 208.99 0.56 208.72 0.39 208.23 0.34L208.23 0.34Q208.33-0.15 207.99-0.66 207.65-1.17 207.31-1.71 206.96-2.25 206.84-2.73 206.72-3.22 207.31-3.66L207.31-3.66Q206.96-4 206.96-4.54L206.96-4.54Q207.31-5.13 207.58-6.15 207.84-7.18 208.01-8.18 208.19-9.18 208.09-10.01 207.99-10.84 207.11-11.23L207.11-11.23Q207.16-11.33 207.31-11.33 207.45-11.33 207.6-11.38L207.6-11.38Q207.21-11.67 207.14-12.21 207.06-12.74 206.77-13.13L206.77-13.13Q206.87-13.38 206.92-13.57 206.96-13.77 207.26-13.72L207.26-13.72Q207.11-14.6 207.28-15.38 207.45-16.16 207.8-16.87 208.14-17.58 208.63-18.26 209.11-18.95 209.55-19.63L209.55-19.63Q209.89-19.68 209.97-19.53 210.04-19.38 210.29-19.58L210.29-19.58Q210.92-20.07 211.16-20.61 211.41-21.14 211.41-21.83L211.41-21.83Q211.75-22.85 212.24-23.9 212.73-24.95 213.31-25.83 213.9-26.71 214.61-27.39 215.31-28.08 216.1-28.42L216.1-28.42Q216.68-28.91 217.56-29.32 218.44-29.74 219.46-29.96 220.49-30.18 221.54-30.2 222.59-30.22 223.47-29.98L223.47-29.98Q223.71-29.88 223.74-30.08 223.76-30.27 223.91-30.27ZM221.91-18.6L221.91-18.6Q223.13-19.14 224.52-19.46 225.91-19.78 226.84-20.65L226.84-20.65Q226.25-21.19 225.13-21.61 224.01-22.02 222.69-22.12 221.37-22.22 220.03-21.9 218.68-21.58 217.71-20.7L217.71-20.7Q217.41-19.82 217.22-19.31 217.02-18.8 216.68-18.07L216.68-18.07Q216.78-17.82 217-17.7 217.22-17.58 217.32-17.33L217.32-17.33Q218.44-17.92 219.59-17.99 220.73-18.07 221.91-18.6Z" opacity="1" transform="matrix(1,0,0,1,0,0)" fill="#000000" class="wordmark-text-0" data-fill-palette-color="primary" id="text-0"></path></svg></g></svg></g><g transform="matrix(1,0,0,1,0,79.97871214951812)"><svg viewBox="0 0 395.52 39.98689733349907" height="39.98689733349907" width="395.52"><g transform="matrix(1,0,0,1,0,0)"><svg width="395.52" viewBox="1.39 -45.41 630.76 63.769999999999996" height="39.98689733349907" data-palette-color="#000000"><path d="M26.61-11.79L26.61-11.79Q26.61-9.47 25.67-7.7 24.73-5.93 23.23-4.63 21.73-3.32 19.85-2.43 17.97-1.54 16.09-1 14.21-0.46 12.5-0.23 10.79 0 9.64 0L9.64 0 2.95 0Q3.32-0.02 3.61-0.22 3.91-0.42 4.13-0.74 4.35-1.07 4.5-1.48 4.66-1.88 4.79-2.32L4.79-2.32Q5.05-3.3 5.1-4.59L5.1-4.59Q5.18-6.18 5.3-9.74L5.3-9.74Q5.35-11.25 5.42-13.35 5.49-15.45 5.58-18.24 5.66-21.02 5.79-24.56 5.91-28.1 6.05-32.5L6.05-32.5Q5.15-32.45 3.99-32.42 2.83-32.4 1.39-32.45L1.39-32.45 5.96-35.01Q6.79-34.94 7.71-34.89 8.64-34.84 9.55-34.84L9.55-34.84Q10.45-34.84 11.25-34.85 12.06-34.86 12.67-34.91L12.67-34.91Q13.38-34.96 13.99-35.01L13.99-35.01Q15.77-35.01 17.61-34.72 19.46-34.42 20.95-33.63 22.44-32.84 23.39-31.42 24.34-30 24.34-27.76L24.34-27.76Q24.22-26.05 23.39-24.54L23.39-24.54Q23.02-23.88 22.49-23.21 21.95-22.53 21.15-21.92 20.36-21.31 19.29-20.8 18.21-20.29 16.8-19.95L16.8-19.95Q17.21-20 17.59-20.02 17.97-20.04 18.36-20.04L18.36-20.04Q19.9-20.04 21.08-19.69 22.27-19.34 23.13-18.75 24-18.16 24.6-17.42 25.2-16.67 25.59-15.92L25.59-15.92Q26.49-14.09 26.61-11.79ZM9.45-6.01L9.45-6.01Q9.35-5.2 9.08-4.47L9.08-4.47Q8.86-3.83 8.48-3.22 8.11-2.61 7.5-2.34L7.5-2.34Q9.94-2.12 11.67-2.04 13.4-1.95 14.5-1.95L14.5-1.95Q15.06-1.95 15.49-1.97 15.92-1.98 16.19-2L16.19-2Q16.5-2.03 16.7-2.05L16.7-2.05Q17.46-2.15 18.31-2.71 19.17-3.27 19.92-4.21 20.68-5.15 21.23-6.4 21.78-7.64 21.95-9.16L21.95-9.16Q22.17-11.18 21.74-12.79 21.31-14.4 20.24-15.53 19.17-16.65 17.44-17.25 15.72-17.85 13.35-17.85L13.35-17.85Q12.94-17.85 12.48-17.82 12.01-17.8 11.55-17.75L11.55-17.75Q13.13-18.51 14.58-19.19 16.02-19.87 17.1-20.84 18.19-21.8 18.82-23.22 19.46-24.63 19.46-26.86L19.46-26.86Q19.46-28.13 19.02-29.05 18.58-29.98 17.85-30.62 17.11-31.25 16.17-31.64 15.23-32.03 14.22-32.25 13.21-32.47 12.21-32.54 11.21-32.62 10.35-32.64L10.35-32.64Q10.25-28.17 10.17-24.66 10.08-21.14 10-18.43 9.91-15.72 9.85-13.76 9.79-11.79 9.72-10.4L9.72-10.4Q9.57-7.15 9.45-6.01ZM43.14-13.6L43.14-13.55Q43.02-12.16 42.92-10.42L42.92-10.42Q42.82-8.94 42.7-6.9 42.58-4.86 42.43-2.39L42.43-2.39 38.33 1.1Q38.86-3.88 39.27-8.4 39.67-12.92 39.67-17.31L39.67-17.31Q39.67-19.53 39.06-20.59 38.45-21.66 37.42-21.66L37.42-21.66Q36.35-21.66 34.93-20.56L34.93-20.56Q35.25-20.85 35.7-21.3 36.16-21.75 36.68-22.27 37.2-22.78 37.78-23.29 38.35-23.8 38.9-24.22 39.45-24.63 39.96-24.89 40.48-25.15 40.87-25.15L40.87-25.15Q41.82-25.15 42.33-24.61 42.84-24.07 43.09-23.29 43.33-22.51 43.38-21.66 43.43-20.8 43.43-20.19L43.43-20.19 43.43-19.04Q44.72-21.19 46.49-22.83 48.26-24.46 50.63-25.15L50.63-25.15Q51.15-25.29 51.63-25.23 52.12-25.17 52.61-25.04 53.1-24.9 53.65-24.76 54.2-24.61 54.83-24.61L54.83-24.61Q55.32-24.61 55.86-24.73 56.39-24.85 57.08-25.15L57.08-25.15Q56.37-24.44 55.69-23.75 55-23.07 54.33-22.52 53.66-21.97 53.01-21.59 52.37-21.22 51.78-21.14L51.78-21.14Q51.15-21.07 50.57-21.23 50-21.39 49.4-21.57 48.8-21.75 48.14-21.84 47.48-21.92 46.73-21.7L46.73-21.7Q46.21-21.53 45.71-20.76 45.21-20 44.74-18.86 44.26-17.72 43.86-16.35 43.45-14.97 43.14-13.6L43.14-13.6ZM74.07-7.59L74.07-7.59 73.53-5.59Q73.12-5.18 72.52-4.55 71.92-3.93 71.2-3.23 70.48-2.54 69.7-1.86 68.92-1.17 68.16-0.63 67.4-0.1 66.71 0.21 66.01 0.51 65.47 0.44L65.47 0.44Q64.64 0.32 64.29-0.77 63.94-1.86 63.94-4.3L63.94-4.3Q63.94-4.74 63.97-5.73 64.01-6.71 64.07-8.03 64.13-9.35 64.22-10.93 64.3-12.5 64.4-14.1 64.5-15.7 64.61-17.25 64.72-18.8 64.84-20.09L64.84-20.09Q64.91-20.95 64.5-21.33 64.08-21.7 63.47-21.7L63.47-21.7Q62.96-21.7 62.4-21.46 61.84-21.22 61.37-20.8L61.37-20.8Q62.35-21.75 63.11-22.4 63.86-23.05 64.4-23.46L64.4-23.46Q65.03-23.93 65.47-24.24L65.47-24.24Q66.08-24.61 66.66-24.62 67.23-24.63 67.68-24.34 68.14-24.05 68.39-23.49 68.65-22.92 68.62-22.14L68.62-22.14Q68.6-21.61 68.51-20.42 68.43-19.24 68.32-17.72 68.21-16.21 68.07-14.53 67.94-12.84 67.83-11.28 67.72-9.72 67.63-8.45 67.55-7.18 67.52-6.49L67.52-6.49Q67.48-5.1 67.83-4.25 68.18-3.39 68.97-3.39L68.97-3.39Q69.55-3.39 70.32-3.91 71.09-4.42 71.85-5.1 72.6-5.79 73.2-6.49 73.8-7.2 74.07-7.59ZM65.94-40.16L69.92-43.6Q69.97-42.41 69.86-41.47 69.75-40.53 69.6-39.87L69.6-39.87Q69.43-39.09 69.19-38.5L69.19-38.5Q68.89-37.92 68.28-37.23L68.28-37.23Q67.77-36.65 66.88-35.88 65.99-35.11 64.57-34.25L64.57-34.25Q65.03-35.18 65.3-36.22 65.57-37.26 65.72-38.13L65.72-38.13Q65.89-39.16 65.94-40.16L65.94-40.16ZM88.25-24.05L88.25-24.05Q88.42-23.61 88.47-22.75 88.52-21.9 88.52-20.8L88.52-20.8Q88.52-20.02 88.49-19.14 88.47-18.26 88.42-17.36L88.42-17.36Q89.13-18.38 89.96-19.47 90.79-20.56 91.7-21.55 92.62-22.53 93.62-23.36 94.62-24.19 95.68-24.72 96.75-25.24 97.86-25.4 98.97-25.56 100.12-25.2L100.12-25.2Q100.75-25 101.15-24.61 101.56-24.22 101.8-23.65 102.04-23.07 102.13-22.34 102.22-21.61 102.22-20.75L102.22-20.75Q102.22-18.85 102.07-16.99 101.92-15.14 101.74-13.32 101.56-11.5 101.41-9.69 101.26-7.89 101.26-6.1L101.26-6.1Q101.26-4.88 101.47-4.17 101.68-3.47 102.22-3.34L102.22-3.34Q102.75-3.37 103.41-3.81L103.41-3.81Q103.97-4.15 104.75-4.93 105.54-5.71 106.46-7.15L106.46-7.15 106.27-5.3Q105.61-4.57 104.74-3.54 103.88-2.51 102.94-1.6 102-0.68 101.03-0.07 100.07 0.54 99.21 0.44L99.21 0.44Q98.28 0.32 97.7-0.62 97.11-1.56 97.11-3.59L97.11-3.59Q97.11-4.59 97.19-5.94 97.26-7.3 97.38-8.79 97.5-10.28 97.64-11.82 97.77-13.35 97.91-14.75 98.04-16.14 98.15-17.3 98.26-18.46 98.31-19.19L98.31-19.19Q98.36-19.92 98.17-20.52 97.99-21.12 97.61-21.56 97.23-22 96.72-22.23 96.21-22.46 95.6-22.46L95.6-22.46Q94.94-22.46 94.21-22.13 93.47-21.8 92.72-21.09L92.72-21.09Q92.35-20.73 91.83-20.08 91.3-19.43 90.69-18.4 90.08-17.36 89.41-15.92 88.74-14.48 88.1-12.55L88.1-12.55Q88.05-11.99 88.03-11.45 88.01-10.91 88.01-10.45L88.01-10.45Q87.96-9.28 87.86-7.96L87.86-7.96Q87.79-6.84 87.69-5.42 87.59-4 87.47-2.54L87.47-2.54 83.61 0.85Q83.88-5.08 84.09-8.95 84.3-12.82 84.42-15.06L84.42-15.06Q84.56-17.7 84.66-19.09L84.66-19.09Q84.73-20.73 84.22-21.41 83.71-22.09 82.95-22.09L82.95-22.09Q82.37-22.09 81.7-21.73 81.02-21.36 80.41-20.8L80.41-20.8Q81.02-21.48 81.77-22.27 82.51-23.05 83.34-23.71 84.17-24.37 85.04-24.8 85.91-25.24 86.76-25.24L86.76-25.24Q87.3-25.24 87.68-24.96 88.05-24.68 88.25-24.05ZM132.66-25L133.37-25.56Q133.22-24.88 133.06-23.71 132.9-22.53 132.77-21.07 132.63-19.6 132.49-17.94 132.34-16.28 132.23-14.61 132.12-12.94 132.02-11.36 131.92-9.79 131.85-8.5 131.78-7.2 131.74-6.3 131.71-5.4 131.71-5.05L131.71-5.05Q131.71-2.59 131.38 0.1 131.05 2.78 130.3 5.38 129.56 7.98 128.34 10.34 127.12 12.7 125.36 14.48 123.6 16.26 121.23 17.31 118.86 18.36 115.81 18.36L115.81 18.36Q114.4 18.36 112.93 17.9 111.47 17.43 110.26 16.56 109.05 15.7 108.28 14.49 107.51 13.28 107.51 11.79L107.51 11.79Q107.51 10.67 107.99 9.59 108.46 8.52 109.28 7.52 110.1 6.52 111.15 5.59 112.2 4.66 113.36 3.81 114.52 2.95 115.68 2.17 116.84 1.39 117.86 0.71L117.86 0.71Q117.4 0.68 116.8 0.28 116.2-0.12 115.69-1.12 115.18-2.12 114.82-3.83 114.47-5.54 114.52-8.2L114.52-8.2Q114.54-11.01 115.12-13.15 115.69-15.28 116.59-16.88 117.5-18.48 118.62-19.64 119.74-20.8 120.87-21.66L120.87-21.66Q123.09-23.39 125.2-24.43 127.31-25.46 129.31-25.56L129.31-25.56Q129.92-25.59 130.53-25.51L130.53-25.51Q131.05-25.46 131.62-25.34 132.19-25.22 132.66-25L132.66-25ZM125.8-5.91L125.8-5.91Q124.21-3.98 122.81-2.62 121.4-1.27 120.25-0.44L120.25-0.44Q119.5 0.12 118.57 0.78 117.64 1.44 116.7 2.19 115.76 2.93 114.86 3.75 113.96 4.57 113.26 5.44 112.56 6.32 112.14 7.24 111.71 8.15 111.71 9.11L111.71 9.11Q111.71 10.25 112.12 11.13 112.54 12.01 113.25 12.7 113.96 13.38 114.87 13.84 115.79 14.31 116.79 14.6 117.79 14.89 118.8 15.03 119.82 15.16 120.72 15.16L120.72 15.16Q122.77 15.16 124.08 14.09 125.38 13.01 126.14 11.18 126.9 9.35 127.23 6.92 127.55 4.49 127.68 1.81 127.8-0.88 127.85-3.7 127.9-6.52 128.07-9.11L128.07-9.11Q127.6-8.42 127.2-7.84 126.8-7.25 126.48-6.84L126.48-6.84Q126.11-6.32 125.8-5.91ZM125.55-22.09L125.55-22.09Q124.01-22.09 122.87-21.56 121.72-21.02 120.91-20.13 120.11-19.24 119.57-18.07 119.03-16.89 118.74-15.63 118.45-14.36 118.33-13.05 118.2-11.74 118.2-10.6L118.2-10.6Q118.2-10.13 118.25-9.42 118.3-8.72 118.44-7.91 118.57-7.1 118.79-6.29 119.01-5.47 119.34-4.82 119.67-4.17 120.12-3.76 120.57-3.34 121.16-3.34L121.16-3.34Q121.79-3.34 122.7-4.04 123.6-4.74 124.92-6.4L124.92-6.4Q125.5-7.18 126.11-8.28L126.11-8.28Q126.63-9.2 127.24-10.57 127.85-11.94 128.41-13.75L128.41-13.75Q128.48-14.65 128.57-15.71 128.65-16.77 128.75-17.85 128.85-18.92 128.96-19.93 129.07-20.95 129.17-21.8L129.17-21.8Q126.9-22.09 125.55-22.09ZM156.24-7.59L156.24-7.59 155.7-5.59Q155.29-5.18 154.69-4.55 154.09-3.93 153.37-3.23 152.65-2.54 151.87-1.86 151.09-1.17 150.33-0.63 149.57-0.1 148.88 0.21 148.18 0.51 147.65 0.44L147.65 0.44Q146.82 0.32 146.46-0.77 146.11-1.86 146.11-4.3L146.11-4.3Q146.11-4.74 146.14-5.73 146.18-6.71 146.24-8.03 146.3-9.35 146.39-10.93 146.47-12.5 146.57-14.1 146.67-15.7 146.78-17.25 146.89-18.8 147.01-20.09L147.01-20.09Q147.08-20.95 146.67-21.33 146.25-21.7 145.64-21.7L145.64-21.7Q145.13-21.7 144.57-21.46 144.01-21.22 143.54-20.8L143.54-20.8Q144.52-21.75 145.28-22.4 146.03-23.05 146.57-23.46L146.57-23.46Q147.21-23.93 147.65-24.24L147.65-24.24Q148.26-24.61 148.83-24.62 149.4-24.63 149.85-24.34 150.31-24.05 150.56-23.49 150.82-22.92 150.79-22.14L150.79-22.14Q150.77-21.61 150.68-20.42 150.6-19.24 150.49-17.72 150.38-16.21 150.25-14.53 150.11-12.84 150-11.28 149.89-9.72 149.81-8.45 149.72-7.18 149.7-6.49L149.7-6.49Q149.65-5.1 150-4.25 150.36-3.39 151.14-3.39L151.14-3.39Q151.72-3.39 152.49-3.91 153.26-4.42 154.02-5.1 154.77-5.79 155.37-6.49 155.97-7.2 156.24-7.59ZM148.11-40.16L152.09-43.6Q152.14-42.41 152.03-41.47 151.92-40.53 151.77-39.87L151.77-39.87Q151.6-39.09 151.36-38.5L151.36-38.5Q151.06-37.92 150.45-37.23L150.45-37.23Q149.94-36.65 149.05-35.88 148.16-35.11 146.74-34.25L146.74-34.25Q147.21-35.18 147.47-36.22 147.74-37.26 147.89-38.13L147.89-38.13Q148.06-39.16 148.11-40.16L148.11-40.16ZM170.42-24.05L170.42-24.05Q170.59-23.61 170.64-22.75 170.69-21.9 170.69-20.8L170.69-20.8Q170.69-20.02 170.67-19.14 170.64-18.26 170.59-17.36L170.59-17.36Q171.3-18.38 172.13-19.47 172.96-20.56 173.88-21.55 174.79-22.53 175.79-23.36 176.79-24.19 177.86-24.72 178.92-25.24 180.03-25.4 181.14-25.56 182.29-25.2L182.29-25.2Q182.92-25 183.32-24.61 183.73-24.22 183.97-23.65 184.22-23.07 184.3-22.34 184.39-21.61 184.39-20.75L184.39-20.75Q184.39-18.85 184.24-16.99 184.09-15.14 183.91-13.32 183.73-11.5 183.58-9.69 183.43-7.89 183.43-6.1L183.43-6.1Q183.43-4.88 183.64-4.17 183.85-3.47 184.39-3.34L184.39-3.34Q184.92-3.37 185.58-3.81L185.58-3.81Q186.14-4.15 186.93-4.93 187.71-5.71 188.63-7.15L188.63-7.15 188.44-5.3Q187.78-4.57 186.91-3.54 186.05-2.51 185.11-1.6 184.17-0.68 183.2-0.07 182.24 0.54 181.38 0.44L181.38 0.44Q180.46 0.32 179.87-0.62 179.28-1.56 179.28-3.59L179.28-3.59Q179.28-4.59 179.36-5.94 179.43-7.3 179.55-8.79 179.67-10.28 179.81-11.82 179.94-13.35 180.08-14.75 180.21-16.14 180.32-17.3 180.43-18.46 180.48-19.19L180.48-19.19Q180.53-19.92 180.35-20.52 180.16-21.12 179.78-21.56 179.41-22 178.89-22.23 178.38-22.46 177.77-22.46L177.77-22.46Q177.11-22.46 176.38-22.13 175.65-21.8 174.89-21.09L174.89-21.09Q174.52-20.73 174-20.08 173.47-19.43 172.86-18.4 172.25-17.36 171.58-15.92 170.91-14.48 170.27-12.55L170.27-12.55Q170.23-11.99 170.2-11.45 170.18-10.91 170.18-10.45L170.18-10.45Q170.13-9.28 170.03-7.96L170.03-7.96Q169.96-6.84 169.86-5.42 169.76-4 169.64-2.54L169.64-2.54 165.78 0.85Q166.05-5.08 166.26-8.95 166.47-12.82 166.59-15.06L166.59-15.06Q166.73-17.7 166.83-19.09L166.83-19.09Q166.91-20.73 166.39-21.41 165.88-22.09 165.12-22.09L165.12-22.09Q164.54-22.09 163.87-21.73 163.19-21.36 162.58-20.8L162.58-20.8Q163.19-21.48 163.94-22.27 164.68-23.05 165.51-23.71 166.34-24.37 167.21-24.8 168.08-25.24 168.93-25.24L168.93-25.24Q169.47-25.24 169.85-24.96 170.23-24.68 170.42-24.05ZM214.83-25L215.54-25.56Q215.39-24.88 215.23-23.71 215.07-22.53 214.94-21.07 214.8-19.6 214.66-17.94 214.51-16.28 214.4-14.61 214.29-12.94 214.19-11.36 214.1-9.79 214.02-8.5 213.95-7.2 213.91-6.3 213.88-5.4 213.88-5.05L213.88-5.05Q213.88-2.59 213.55 0.1 213.22 2.78 212.47 5.38 211.73 7.98 210.51 10.34 209.29 12.7 207.53 14.48 205.77 16.26 203.4 17.31 201.03 18.36 197.98 18.36L197.98 18.36Q196.57 18.36 195.1 17.9 193.64 17.43 192.43 16.56 191.22 15.7 190.45 14.49 189.68 13.28 189.68 11.79L189.68 11.79Q189.68 10.67 190.16 9.59 190.63 8.52 191.45 7.52 192.27 6.52 193.32 5.59 194.37 4.66 195.53 3.81 196.69 2.95 197.85 2.17 199.01 1.39 200.03 0.71L200.03 0.71Q199.57 0.68 198.97 0.28 198.37-0.12 197.86-1.12 197.35-2.12 196.99-3.83 196.64-5.54 196.69-8.2L196.69-8.2Q196.71-11.01 197.29-13.15 197.86-15.28 198.76-16.88 199.67-18.48 200.79-19.64 201.91-20.8 203.04-21.66L203.04-21.66Q205.26-23.39 207.37-24.43 209.48-25.46 211.48-25.56L211.48-25.56Q212.09-25.59 212.7-25.51L212.7-25.51Q213.22-25.46 213.79-25.34 214.36-25.22 214.83-25L214.83-25ZM207.97-5.91L207.97-5.91Q206.38-3.98 204.98-2.62 203.57-1.27 202.43-0.44L202.43-0.44Q201.67 0.12 200.74 0.78 199.81 1.44 198.87 2.19 197.93 2.93 197.03 3.75 196.13 4.57 195.43 5.44 194.74 6.32 194.31 7.24 193.88 8.15 193.88 9.11L193.88 9.11Q193.88 10.25 194.3 11.13 194.71 12.01 195.42 12.7 196.13 13.38 197.04 13.84 197.96 14.31 198.96 14.6 199.96 14.89 200.97 15.03 201.99 15.16 202.89 15.16L202.89 15.16Q204.94 15.16 206.25 14.09 207.55 13.01 208.31 11.18 209.07 9.35 209.4 6.92 209.73 4.49 209.85 1.81 209.97-0.88 210.02-3.7 210.07-6.52 210.24-9.11L210.24-9.11Q209.77-8.42 209.37-7.84 208.97-7.25 208.65-6.84L208.65-6.84Q208.29-6.32 207.97-5.91ZM207.72-22.09L207.72-22.09Q206.19-22.09 205.04-21.56 203.89-21.02 203.09-20.13 202.28-19.24 201.74-18.07 201.21-16.89 200.91-15.63 200.62-14.36 200.5-13.05 200.38-11.74 200.38-10.6L200.38-10.6Q200.38-10.13 200.42-9.42 200.47-8.72 200.61-7.91 200.74-7.1 200.96-6.29 201.18-5.47 201.51-4.82 201.84-4.17 202.29-3.76 202.74-3.34 203.33-3.34L203.33-3.34Q203.96-3.34 204.87-4.04 205.77-4.74 207.09-6.4L207.09-6.4Q207.67-7.18 208.29-8.28L208.29-8.28Q208.8-9.2 209.41-10.57 210.02-11.94 210.58-13.75L210.58-13.75Q210.65-14.65 210.74-15.71 210.82-16.77 210.92-17.85 211.02-18.92 211.13-19.93 211.24-20.95 211.34-21.8L211.34-21.8Q209.07-22.09 207.72-22.09ZM270.37-26.2L270.37-26.2Q270.19-24.56 269.62-23.18 269.05-21.8 268.22-20.67 267.39-19.53 266.42-18.64 265.46-17.75 264.52-17.08 263.58-16.41 262.75-15.95 261.92-15.5 261.41-15.26L261.41-15.26Q260.7-14.94 259.87-14.7L259.87-14.7Q259.16-14.5 258.22-14.33 257.28-14.16 256.21-14.21L256.21-14.21 258.72-15.41Q260.11-15.31 261.5-16.13 262.9-16.94 263.97-18.42 265.04-19.9 265.67-21.91 266.29-23.93 266.12-26.25L266.12-26.25Q265.97-28 265.15-29.36 264.34-30.71 263.19-31.64 262.04-32.57 260.7-33.06 259.36-33.54 258.11-33.54L258.11-33.54Q257.26-33.54 256.06-33.48 254.86-33.42 253.52-33.3L253.52-33.3Q253.45-28.69 253.36-25.06 253.28-21.44 253.2-18.64 253.13-15.84 253.07-13.81 253.01-11.77 252.93-10.35L252.93-10.35Q252.79-7.01 252.67-5.81L252.67-5.81Q252.59-5.32 252.42-4.81L252.42-4.81Q252.28-4.37 252.02-3.86 251.76-3.34 251.37-2.86L251.37-2.86Q252.42-2.73 253.26-2.72 254.11-2.71 254.81-2.71L254.81-2.71Q256.5-2.71 257.29-2.81 258.09-2.91 258.21-2.95L258.21-2.95Q256.94-2.32 255.82-1.78 254.69-1.25 253.67-0.83 252.64-0.42 251.7-0.18 250.76 0.05 249.86 0.05L249.86 0.05 245.61 0.05 247.76-1.39Q247.93-2.03 248.09-2.91 248.25-3.78 248.37-4.8 248.49-5.81 248.58-6.9 248.66-7.98 248.74-9.03L248.74-9.03Q248.88-11.45 248.95-14.16L248.95-14.16Q249-17.92 249.05-21.44L249.05-21.44Q249.08-22.92 249.1-24.51 249.13-26.1 249.14-27.62 249.15-29.15 249.17-30.51 249.2-31.86 249.22-32.91L249.22-32.91 244.8-32.45 249.57-35.3Q250.25-35.23 250.92-35.22 251.59-35.21 252.3-35.21L252.3-35.21Q253.5-35.21 254.62-35.29 255.74-35.38 256.84-35.49 257.94-35.6 259.01-35.69 260.09-35.79 261.16-35.79L261.16-35.79Q263.09-35.79 264.85-35.13 266.61-34.47 267.91-33.23 269.22-31.98 269.9-30.2 270.59-28.42 270.37-26.2ZM291.19-9.79L291.19-7.1Q289.89-5.64 288.81-4.53 287.72-3.42 286.89-2.66L286.89-2.66Q285.92-1.78 285.13-1.15L285.13-1.15Q282.99 0.56 281.4 0.56L281.4 0.56Q280.5 0.56 279.85 0.09 279.2-0.39 278.74-1.15 278.27-1.9 277.98-2.86 277.69-3.81 277.53-4.77 277.37-5.74 277.31-6.62 277.25-7.5 277.25-8.11L277.25-8.11Q277.25-9.74 277.63-11.65 278.01-13.55 278.73-15.44 279.45-17.33 280.5-19.08 281.55-20.83 282.9-22.18 284.26-23.54 285.88-24.34 287.5-25.15 289.38-25.15L289.38-25.15Q289.89-25.15 290.24-24.96 290.58-24.78 290.8-24.46 291.02-24.15 291.1-23.75 291.19-23.36 291.19-22.95L291.19-22.95Q291.19-21.88 290.7-20.8 290.21-19.73 289.39-18.69 288.58-17.65 287.53-16.66 286.48-15.67 285.34-14.78 284.21-13.89 283.08-13.11 281.96-12.33 281.03-11.69L281.03-11.69 281.03-11.16Q281.03-10.55 281.09-9.68 281.15-8.81 281.31-7.87 281.47-6.93 281.74-6.01 282.01-5.08 282.42-4.35 282.84-3.61 283.41-3.16 283.99-2.71 284.74-2.71L284.74-2.71Q285.09-2.71 285.45-2.82 285.82-2.93 286.18-3.2L286.18-3.2Q286.82-3.71 287.62-4.61L287.62-4.61Q288.31-5.4 289.21-6.64 290.11-7.89 291.19-9.79L291.19-9.79ZM286.65-21.51L286.65-21.51Q286.35-21.85 285.89-21.95 285.43-22.05 284.9-21.9 284.38-21.75 283.88-21.34 283.38-20.92 283.03-20.24L283.03-20.24Q282.55-19.26 281.96-17.44 281.37-15.63 281.13-13.26L281.13-13.26Q281.91-13.72 282.74-14.33 283.57-14.94 284.34-15.63 285.11-16.31 285.73-17.05 286.35-17.8 286.71-18.57 287.06-19.34 287.09-20.08 287.11-20.83 286.65-21.51ZM317.87-18.8L317.87-18.8Q317.94-16.89 317.75-15.06 317.55-13.23 317.18-11.63 316.8-10.03 316.25-8.73 315.7-7.42 315.06-6.59L315.06-6.59Q314.65-6.03 313.9-5.29 313.16-4.54 312.23-3.75 311.3-2.95 310.25-2.17 309.2-1.39 308.18-0.79 307.15-0.2 306.21 0.18 305.27 0.56 304.57 0.56L304.57 0.56Q303.74 0.56 303.13 0.13 302.51-0.29 302.08-0.99 301.64-1.68 301.34-2.55 301.05-3.42 300.88-4.28 300.71-5.15 300.65-5.94 300.59-6.74 300.59-7.3L300.59-7.3Q300.59-9.45 300.98-11.56 301.37-13.67 302.19-15.58 303-17.48 304.25-19.1 305.49-20.73 307.23-21.9L307.23-21.9Q308.35-22.66 309.25-23.28 310.16-23.9 310.91-24.32 311.67-24.73 312.29-24.96 312.92-25.2 313.48-25.2L313.48-25.2Q314.01-25.2 314.73-24.9 315.45-24.61 316.13-23.89 316.8-23.17 317.29-21.94 317.77-20.7 317.87-18.8ZM314.01-14.75L314.01-14.75Q314.01-15.77 313.87-17.09 313.72-18.41 313.28-19.56 312.84-20.7 312.05-21.5 311.25-22.29 309.94-22.29L309.94-22.29Q309.4-22.29 308.83-22.06 308.25-21.83 307.76-21.34L307.76-21.34Q306.79-20.36 306.19-19.1 305.59-17.85 305.25-16.46 304.91-15.06 304.79-13.65 304.66-12.23 304.66-10.96L304.66-10.96Q304.66-10.3 304.69-9.44 304.71-8.57 304.83-7.65 304.96-6.74 305.19-5.83 305.42-4.93 305.82-4.24 306.23-3.54 306.84-3.1 307.45-2.66 308.33-2.66L308.33-2.66Q309.5-2.66 310.38-3.33 311.25-4 311.89-5.08 312.52-6.15 312.93-7.5 313.33-8.84 313.57-10.18 313.82-11.52 313.92-12.73 314.01-13.94 314.01-14.75ZM338.28 12.7L338.28 12.7Q337.38 13.62 336.63 14.29 335.89 14.97 335.33 15.38L335.33 15.38Q334.69 15.87 334.13 16.21L334.13 16.21Q333.47 16.63 332.79 16.83 332.1 17.04 331.52 17.09 330.93 17.14 330.5 17.02 330.08 16.89 329.93 16.65L329.93 16.65Q329.76 16.43 329.76 15.39 329.76 14.36 329.86 12.83 329.95 11.3 330.09 9.45 330.22 7.59 330.32 5.69L330.32 5.69 330.56 0.29Q329.93 0.29 329.34 0.27 328.76 0.24 328.22 0.24L328.22 0.24Q327.68 0.24 327.31 0.26 326.93 0.27 326.73 0.34L326.73 0.34Q327.9-0.49 328.82-1.27 329.73-2.05 330.71-2.54L330.71-2.54Q330.78-4.39 330.87-6.35 330.95-8.3 331.04-10.17 331.13-12.04 331.19-13.73 331.25-15.43 331.31-16.76 331.37-18.09 331.39-18.98 331.42-19.87 331.42-20.14L331.42-20.14Q331.42-20.9 330.89-21.45 330.37-22 329.51-22L329.51-22Q329.1-22 328.61-21.84 328.12-21.68 327.56-21.34L327.56-21.34Q328.24-21.97 328.97-22.66 329.69-23.34 330.43-23.89 331.17-24.44 331.94-24.79 332.71-25.15 333.52-25.15L333.52-25.15Q334.28-25.15 334.78-24.66 335.28-24.17 335.28-23L335.28-23Q335.28-22.39 335.22-20.47 335.15-18.55 335.03-15.8L335.03-15.8Q335.52-16.99 335.92-17.81 336.33-18.63 336.59-19.14L336.59-19.14Q336.91-19.75 337.13-20.09L337.13-20.09Q337.89-21.19 338.79-22.17 339.7-23.14 340.62-23.9 341.55-24.66 342.48-25.16 343.41-25.66 344.26-25.81L344.26-25.81Q345.14-25.93 345.97-25.6 346.8-25.27 347.46-24.44 348.12-23.61 348.56-22.28 349-20.95 349.07-19.09L349.07-19.09Q349.12-17.02 348.63-14.86 348.14-12.7 347.2-10.63 346.26-8.57 344.92-6.71 343.58-4.86 341.92-3.41 340.26-1.95 338.33-0.99 336.4-0.02 334.32 0.24L334.32 0.24 333.76 13.21Q333.96 13.31 334.23 13.4L334.23 13.4Q334.45 13.48 334.75 13.54 335.06 13.6 335.47 13.6L335.47 13.6Q336.03 13.6 336.77 13.42 337.5 13.23 338.28 12.7ZM336.72-3L336.72-3Q337.42-3 338.11-3.04 338.79-3.08 339.39-3.16 339.99-3.25 340.48-3.41 340.96-3.56 341.28-3.81L341.28-3.81Q341.77-4.17 342.45-5.03 343.14-5.88 343.76-7.19 344.38-8.5 344.82-10.25 345.26-12.01 345.26-14.21L345.26-14.21Q345.26-14.89 345.2-15.84 345.14-16.8 344.97-17.8 344.8-18.8 344.48-19.74 344.16-20.68 343.66-21.35 343.16-22.02 342.45-22.31 341.75-22.61 340.77-22.29L340.77-22.29Q340.26-22.12 339.65-21.5 339.04-20.87 338.39-19.63 337.74-18.38 337.1-16.44 336.45-14.5 335.91-11.69L335.91-11.69Q335.74-10.99 335.52-10.11L335.52-10.11Q335.33-9.35 335.09-8.34 334.86-7.32 334.62-6.15L334.62-6.15 334.47-3.05Q335.03-3.05 335.59-3.03 336.16-3 336.72-3ZM371.8-9.16L371.36-6.4Q370.87-5.76 370.27-4.99 369.67-4.22 368.99-3.42 368.31-2.61 367.55-1.87 366.79-1.12 365.97-0.55 365.16 0.02 364.3 0.34 363.45 0.66 362.59 0.61L362.59 0.61Q361.86 0.54 361.4-0.06 360.93-0.66 360.66-1.6 360.4-2.54 360.32-3.76 360.25-4.98 360.3-6.3L360.3-6.3Q360.32-6.96 360.42-8.63 360.52-10.3 360.65-12.6 360.79-14.89 360.95-17.63 361.1-20.36 361.25-23.17 361.4-25.98 361.54-28.67 361.69-31.37 361.8-33.57 361.91-35.77 361.98-37.29 362.06-38.82 362.06-39.31L362.06-39.31Q362.06-40.63 361.85-41.36 361.64-42.09 360.81-42.09L360.81-42.09Q360.01-42.09 358.44-41.36L358.44-41.36Q359.52-42.29 360.3-42.94 361.08-43.6 361.59-44.02L361.59-44.02Q362.2-44.48 362.59-44.8L362.59-44.8Q363.33-45.41 364.2-45.41L364.2-45.41Q364.96-45.41 365.51-44.85 366.06-44.29 365.96-43.09L365.96-43.09Q365.94-42.63 365.85-41.1 365.77-39.58 365.67-37.34 365.57-35.11 365.44-32.36 365.3-29.61 365.18-26.7 365.06-23.78 364.92-20.89 364.79-17.99 364.69-15.5 364.6-13.01 364.53-11.08 364.47-9.16 364.45-8.15L364.45-8.15Q364.42-6.79 364.6-5.81 364.77-4.83 365.06-4.22 365.35-3.61 365.77-3.33 366.18-3.05 366.65-3.05L366.65-3.05Q367.21-3.05 367.77-3.39 368.33-3.74 368.84-4.27 369.36-4.81 369.82-5.49 370.28-6.18 370.67-6.86 371.07-7.54 371.35-8.15 371.63-8.76 371.8-9.16L371.8-9.16ZM392.84-9.79L392.84-7.1Q391.55-5.64 390.46-4.53 389.37-3.42 388.54-2.66L388.54-2.66Q387.57-1.78 386.79-1.15L386.79-1.15Q384.64 0.56 383.05 0.56L383.05 0.56Q382.15 0.56 381.5 0.09 380.85-0.39 380.39-1.15 379.93-1.9 379.63-2.86 379.34-3.81 379.18-4.77 379.02-5.74 378.96-6.62 378.9-7.5 378.9-8.11L378.9-8.11Q378.9-9.74 379.28-11.65 379.66-13.55 380.38-15.44 381.1-17.33 382.15-19.08 383.2-20.83 384.55-22.18 385.91-23.54 387.53-24.34 389.15-25.15 391.03-25.15L391.03-25.15Q391.55-25.15 391.89-24.96 392.23-24.78 392.45-24.46 392.67-24.15 392.75-23.75 392.84-23.36 392.84-22.95L392.84-22.95Q392.84-21.88 392.35-20.8 391.86-19.73 391.05-18.69 390.23-17.65 389.18-16.66 388.13-15.67 386.99-14.78 385.86-13.89 384.73-13.11 383.61-12.33 382.68-11.69L382.68-11.69 382.68-11.16Q382.68-10.55 382.74-9.68 382.81-8.81 382.96-7.87 383.12-6.93 383.39-6.01 383.66-5.08 384.08-4.35 384.49-3.61 385.06-3.16 385.64-2.71 386.39-2.71L386.39-2.71Q386.74-2.71 387.1-2.82 387.47-2.93 387.84-3.2L387.84-3.2Q388.47-3.71 389.28-4.61L389.28-4.61Q389.96-5.4 390.86-6.64 391.77-7.89 392.84-9.79L392.84-9.79ZM388.3-21.51L388.3-21.51Q388.01-21.85 387.54-21.95 387.08-22.05 386.55-21.9 386.03-21.75 385.53-21.34 385.03-20.92 384.69-20.24L384.69-20.24Q384.2-19.26 383.61-17.44 383.03-15.63 382.78-13.26L382.78-13.26Q383.56-13.72 384.39-14.33 385.22-14.94 385.99-15.63 386.76-16.31 387.38-17.05 388.01-17.8 388.36-18.57 388.71-19.34 388.74-20.08 388.76-20.83 388.3-21.51ZM450.62-34.11L450.62-34.11Q450.36-33.96 449.79-33.64L449.79-33.64Q449.31-33.37 448.46-32.87 447.62-32.37 446.28-31.59L446.28-31.59Q446.69-32.13 446.66-32.36 446.62-32.59 446.42-32.67L446.42-32.67Q446.18-32.76 445.77-32.69L445.77-32.69Q445.52-32.64 444.72-32.58 443.91-32.52 442.7-32.47 441.49-32.42 439.95-32.37 438.42-32.32 436.71-32.3L436.71-32.3Q436.61-28.22 436.54-25 436.46-21.78 436.4-19.29 436.34-16.8 436.3-14.97 436.27-13.13 436.24-11.84L436.24-11.84Q436.17-8.81 436.17-7.64L436.17-7.64Q436.15-6.74 435.93-5.86L435.93-5.86Q435.73-5.1 435.34-4.24 434.95-3.37 434.22-2.66L434.22-2.66Q434.68-2.61 435.1-2.6 435.51-2.59 435.93-2.59L435.93-2.59Q437.07-2.59 437.99-2.7 438.91-2.81 439.56-2.93 440.22-3.05 440.63-3.17 441.03-3.3 441.13-3.34L441.13-3.34Q439.83-2.47 438.98-1.83 438.12-1.2 437.44-0.79 436.76-0.39 436.1-0.2 435.44 0 434.56 0L434.56 0Q433.39 0 432.57-0.1 431.75-0.2 430.92-0.2L430.92-0.2Q430.51-0.2 430.08-0.16 429.65-0.12 429.12 0L429.12 0Q429.8-0.59 430.37-1.28 430.95-1.98 431.34-2.98 431.73-3.98 431.95-5.37 432.17-6.76 432.17-8.74L432.17-8.74 432.17-32.15Q430.04-32.1 428-32.06 425.97-32.01 424.33-31.97 422.69-31.93 421.58-31.88 420.47-31.84 420.18-31.81L420.18-31.81Q419.5-31.74 419.2-31.86 418.91-31.98 418.93-32.24 418.96-32.5 419.29-32.86 419.62-33.23 420.18-33.64L420.18-33.64 423.52-36.06Q423.16-35.62 423.29-35.4 423.43-35.18 423.72-35.06L423.72-35.06Q424.06-34.94 424.62-34.91L424.62-34.91Q425.01-34.91 426.21-34.94 427.41-34.96 429.13-35 430.85-35.03 432.95-35.07 435.05-35.11 437.22-35.17 439.39-35.23 441.49-35.28 443.59-35.33 445.31-35.36 447.03-35.4 448.23-35.44 449.43-35.47 449.82-35.5L449.82-35.5Q450.58-35.52 450.92-35.38 451.26-35.23 451.3-34.99 451.33-34.74 451.12-34.5 450.92-34.25 450.62-34.11ZM441.18-3.39L441.13-3.34 441.13-3.37Q441.15-3.39 441.18-3.39L441.18-3.39ZM469.86-18.8L469.86-18.8Q469.93-16.89 469.74-15.06 469.54-13.23 469.16-11.63 468.79-10.03 468.24-8.73 467.69-7.42 467.05-6.59L467.05-6.59Q466.64-6.03 465.89-5.29 465.15-4.54 464.22-3.75 463.29-2.95 462.24-2.17 461.19-1.39 460.17-0.79 459.14-0.2 458.2 0.18 457.26 0.56 456.55 0.56L456.55 0.56Q455.72 0.56 455.11 0.13 454.5-0.29 454.06-0.99 453.62-1.68 453.33-2.55 453.04-3.42 452.87-4.28 452.7-5.15 452.64-5.94 452.57-6.74 452.57-7.3L452.57-7.3Q452.57-9.45 452.97-11.56 453.36-13.67 454.17-15.58 454.99-17.48 456.24-19.1 457.48-20.73 459.22-21.9L459.22-21.9Q460.34-22.66 461.24-23.28 462.15-23.9 462.9-24.32 463.66-24.73 464.28-24.96 464.9-25.2 465.47-25.2L465.47-25.2Q466-25.2 466.72-24.9 467.44-24.61 468.11-23.89 468.79-23.17 469.27-21.94 469.76-20.7 469.86-18.8ZM466-14.75L466-14.75Q466-15.77 465.86-17.09 465.71-18.41 465.27-19.56 464.83-20.7 464.04-21.5 463.24-22.29 461.93-22.29L461.93-22.29Q461.39-22.29 460.81-22.06 460.24-21.83 459.75-21.34L459.75-21.34Q458.78-20.36 458.18-19.1 457.58-17.85 457.24-16.46 456.9-15.06 456.77-13.65 456.65-12.23 456.65-10.96L456.65-10.96Q456.65-10.3 456.68-9.44 456.7-8.57 456.82-7.65 456.94-6.74 457.18-5.83 457.41-4.93 457.81-4.24 458.21-3.54 458.82-3.1 459.44-2.66 460.31-2.66L460.31-2.66Q461.49-2.66 462.36-3.33 463.24-4 463.88-5.08 464.51-6.15 464.92-7.5 465.32-8.84 465.56-10.18 465.81-11.52 465.9-12.73 466-13.94 466-14.75ZM497.91-25L498.62-25.56Q498.47-24.88 498.31-23.71 498.15-22.53 498.02-21.07 497.89-19.6 497.74-17.94 497.59-16.28 497.48-14.61 497.37-12.94 497.27-11.36 497.18-9.79 497.1-8.5 497.03-7.2 496.99-6.3 496.96-5.4 496.96-5.05L496.96-5.05Q496.96-2.59 496.63 0.1 496.3 2.78 495.55 5.38 494.81 7.98 493.59 10.34 492.37 12.7 490.61 14.48 488.85 16.26 486.48 17.31 484.12 18.36 481.06 18.36L481.06 18.36Q479.65 18.36 478.18 17.9 476.72 17.43 475.51 16.56 474.3 15.7 473.53 14.49 472.76 13.28 472.76 11.79L472.76 11.79Q472.76 10.67 473.24 9.59 473.72 8.52 474.53 7.52 475.35 6.52 476.4 5.59 477.45 4.66 478.61 3.81 479.77 2.95 480.93 2.17 482.09 1.39 483.11 0.71L483.11 0.71Q482.65 0.68 482.05 0.28 481.45-0.12 480.94-1.12 480.43-2.12 480.07-3.83 479.72-5.54 479.77-8.2L479.77-8.2Q479.79-11.01 480.37-13.15 480.94-15.28 481.85-16.88 482.75-18.48 483.87-19.64 484.99-20.8 486.12-21.66L486.12-21.66Q488.34-23.39 490.45-24.43 492.56-25.46 494.56-25.56L494.56-25.56Q495.18-25.59 495.79-25.51L495.79-25.51Q496.3-25.46 496.87-25.34 497.45-25.22 497.91-25L497.91-25ZM491.05-5.91L491.05-5.91Q489.46-3.98 488.06-2.62 486.65-1.27 485.51-0.44L485.51-0.44Q484.75 0.12 483.82 0.78 482.89 1.44 481.95 2.19 481.01 2.93 480.11 3.75 479.21 4.57 478.51 5.44 477.82 6.32 477.39 7.24 476.96 8.15 476.96 9.11L476.96 9.11Q476.96 10.25 477.38 11.13 477.79 12.01 478.5 12.7 479.21 13.38 480.12 13.84 481.04 14.31 482.04 14.6 483.04 14.89 484.05 15.03 485.07 15.16 485.97 15.16L485.97 15.16Q488.02 15.16 489.33 14.09 490.63 13.01 491.39 11.18 492.15 9.35 492.48 6.92 492.81 4.49 492.93 1.81 493.05-0.88 493.1-3.7 493.15-6.52 493.32-9.11L493.32-9.11Q492.86-8.42 492.45-7.84 492.05-7.25 491.73-6.84L491.73-6.84Q491.37-6.32 491.05-5.91ZM490.8-22.09L490.8-22.09Q489.27-22.09 488.12-21.56 486.97-21.02 486.17-20.13 485.36-19.24 484.82-18.07 484.29-16.89 483.99-15.63 483.7-14.36 483.58-13.05 483.46-11.74 483.46-10.6L483.46-10.6Q483.46-10.13 483.51-9.42 483.55-8.72 483.69-7.91 483.82-7.1 484.04-6.29 484.26-5.47 484.59-4.82 484.92-4.17 485.37-3.76 485.82-3.34 486.41-3.34L486.41-3.34Q487.05-3.34 487.95-4.04 488.85-4.74 490.17-6.4L490.17-6.4Q490.76-7.18 491.37-8.28L491.37-8.28Q491.88-9.2 492.49-10.57 493.1-11.94 493.66-13.75L493.66-13.75Q493.73-14.65 493.82-15.71 493.91-16.77 494-17.85 494.1-18.92 494.21-19.93 494.32-20.95 494.42-21.8L494.42-21.8Q492.15-22.09 490.8-22.09ZM523.15-9.79L523.15-7.1Q521.86-5.64 520.77-4.53 519.68-3.42 518.85-2.66L518.85-2.66Q517.88-1.78 517.1-1.15L517.1-1.15Q514.95 0.56 513.36 0.56L513.36 0.56Q512.46 0.56 511.81 0.09 511.16-0.39 510.7-1.15 510.24-1.9 509.94-2.86 509.65-3.81 509.49-4.77 509.33-5.74 509.27-6.62 509.21-7.5 509.21-8.11L509.21-8.11Q509.21-9.74 509.59-11.65 509.97-13.55 510.69-15.44 511.41-17.33 512.46-19.08 513.51-20.83 514.86-22.18 516.22-23.54 517.84-24.34 519.46-25.15 521.34-25.15L521.34-25.15Q521.86-25.15 522.2-24.96 522.54-24.78 522.76-24.46 522.98-24.15 523.07-23.75 523.15-23.36 523.15-22.95L523.15-22.95Q523.15-21.88 522.66-20.8 522.17-19.73 521.36-18.69 520.54-17.65 519.49-16.66 518.44-15.67 517.3-14.78 516.17-13.89 515.05-13.11 513.92-12.33 513-11.69L513-11.69 513-11.16Q513-10.55 513.06-9.68 513.12-8.81 513.28-7.87 513.43-6.93 513.7-6.01 513.97-5.08 514.39-4.35 514.8-3.61 515.38-3.16 515.95-2.71 516.71-2.71L516.71-2.71Q517.05-2.71 517.41-2.82 517.78-2.93 518.15-3.2L518.15-3.2Q518.78-3.71 519.59-4.61L519.59-4.61Q520.27-5.4 521.17-6.64 522.08-7.89 523.15-9.79L523.15-9.79ZM518.61-21.51L518.61-21.51Q518.32-21.85 517.85-21.95 517.39-22.05 516.86-21.9 516.34-21.75 515.84-21.34 515.34-20.92 515-20.24L515-20.24Q514.51-19.26 513.92-17.44 513.34-15.63 513.09-13.26L513.09-13.26Q513.87-13.72 514.7-14.33 515.53-14.94 516.3-15.63 517.07-16.31 517.69-17.05 518.32-17.8 518.67-18.57 519.03-19.34 519.05-20.08 519.07-20.83 518.61-21.51ZM547.34-8.11L547.34-8.11 546.83-5.59Q546.27-5.13 545.52-4.43 544.78-3.74 543.91-2.98 543.05-2.22 542.12-1.5 541.19-0.78 540.26-0.28 539.34 0.22 538.44 0.43 537.55 0.63 536.8 0.34L536.8 0.34Q536.31 0.17 535.95-0.17 535.6-0.51 535.37-1.15 535.14-1.78 535.01-2.77 534.89-3.76 534.89-5.2L534.89-5.2Q534.89-9.55 535.08-13.64 535.26-17.72 535.53-21.75L535.53-21.75Q534.5-21.68 533.51-21.5 532.52-21.31 531.99-20.9L531.99-20.9Q533.53-22.27 534.4-23.43 535.28-24.58 535.75-25.49L535.75-25.49 536.04-29.96 540.24-33.45 539.73-24.71Q540.26-24.66 540.73-24.66 541.19-24.66 541.63-24.66L541.63-24.66Q543.75-24.66 545.57-25.04 547.39-25.42 549.08-26.05L549.08-26.05Q547.51-24.8 546.09-24.02 544.66-23.24 543.44-22.77 542.22-22.29 541.22-22.08 540.21-21.88 539.53-21.8L539.53-21.8Q539.29-17.41 539.15-14.69 539.02-11.96 538.95-10.47L538.95-10.47Q538.85-8.72 538.85-7.91L538.85-7.91Q538.77-6.71 538.99-5.79 539.21-4.86 539.67-4.25 540.12-3.64 540.76-3.39 541.41-3.15 542.19-3.34L542.19-3.34Q542.8-3.54 543.61-4.13L543.61-4.13Q544.29-4.61 545.23-5.55 546.17-6.49 547.34-8.11ZM531.84-20.8L531.99-20.9 531.84-20.8ZM562.23-42.46L562.23-42.46Q562.28-41.99 562.28-41.24 562.28-40.48 562.28-39.45L562.28-39.45Q562.28-33.79 562.03-28.38 561.77-22.97 561.38-17.6L561.38-17.6Q562.28-19.02 563.39-20.48 564.5-21.95 565.75-23.13 566.99-24.32 568.34-25.06 569.68-25.81 571.07-25.81L571.07-25.81Q572.22-25.81 572.98-25.22 573.73-24.63 574.17-23.75 574.61-22.88 574.79-21.85 574.98-20.83 574.98-19.95L574.98-19.95Q574.98-18.09 574.83-16.27 574.69-14.45 574.53-12.67 574.37-10.89 574.22-9.12 574.07-7.35 574.07-5.59L574.07-5.59Q574.07-5.1 574.12-4.61 574.17-4.13 574.34-3.72 574.51-3.32 574.82-3.06 575.12-2.81 575.64-2.81L575.64-2.81Q576.32-2.81 577.04-3.38 577.76-3.96 578.38-4.72 579.01-5.49 579.51-6.26 580.01-7.03 580.28-7.45L580.28-7.45 579.74-5.2Q578.66-4.15 577.97-3.5 577.27-2.86 576.86-2.47L576.86-2.47Q576.37-2.03 576.08-1.81L576.08-1.81Q575.78-1.56 575.34-1.15 574.9-0.73 574.38-0.34 573.85 0.05 573.28 0.33 572.71 0.61 572.12 0.61L572.12 0.61Q571.63 0.61 571.32 0.46 571 0.32 570.8-0.05 570.61-0.42 570.52-1.01 570.44-1.61 570.44-2.54L570.44-2.54Q570.44-4.83 570.57-7.02 570.71-9.2 570.85-11.33 571-13.45 571.1-15.53 571.19-17.6 571.12-19.65L571.12-19.65Q571.07-20.24 570.83-20.76 570.58-21.29 570.16-21.68 569.73-22.07 569.14-22.28 568.56-22.49 567.87-22.41L567.87-22.41Q567.19-22.34 566.54-22.02 565.9-21.7 565.27-21.07 564.65-20.43 564.03-19.43 563.41-18.43 562.77-16.94L562.77-16.94Q562.5-16.28 562.21-15.48L562.21-15.48Q561.94-14.77 561.62-13.83 561.31-12.89 560.99-11.74L560.99-11.74 560.38-1.9 556.47 1.15Q556.86-3.56 557.24-8.07 557.62-12.57 557.91-16.93 558.21-21.29 558.39-25.55 558.57-29.81 558.57-34.06L558.57-34.06Q558.57-35.57 558.51-36.84 558.45-38.11 558.34-39.07 558.23-40.04 558.06-40.67 557.89-41.31 557.64-41.55L557.64-41.55Q557.28-41.8 556.79-41.8L556.79-41.8Q556.37-41.8 555.75-41.56 555.13-41.33 554.27-40.6L554.27-40.6Q554.79-41.04 555.54-41.77 556.3-42.5 557.13-43.2 557.96-43.9 558.79-44.4 559.62-44.9 560.28-44.9L560.28-44.9Q560.99-44.9 561.55-44.34 562.11-43.77 562.23-42.46ZM601.42-9.79L601.42-7.1Q600.12-5.64 599.04-4.53 597.95-3.42 597.12-2.66L597.12-2.66Q596.14-1.78 595.36-1.15L595.36-1.15Q593.21 0.56 591.63 0.56L591.63 0.56Q590.72 0.56 590.08 0.09 589.43-0.39 588.97-1.15 588.5-1.9 588.21-2.86 587.92-3.81 587.76-4.77 587.6-5.74 587.54-6.62 587.48-7.5 587.48-8.11L587.48-8.11Q587.48-9.74 587.85-11.65 588.23-13.55 588.95-15.44 589.67-17.33 590.72-19.08 591.77-20.83 593.13-22.18 594.48-23.54 596.11-24.34 597.73-25.15 599.61-25.15L599.61-25.15Q600.12-25.15 600.46-24.96 600.81-24.78 601.03-24.46 601.25-24.15 601.33-23.75 601.42-23.36 601.42-22.95L601.42-22.95Q601.42-21.88 600.93-20.8 600.44-19.73 599.62-18.69 598.8-17.65 597.75-16.66 596.7-15.67 595.57-14.78 594.43-13.89 593.31-13.11 592.19-12.33 591.26-11.69L591.26-11.69 591.26-11.16Q591.26-10.55 591.32-9.68 591.38-8.81 591.54-7.87 591.7-6.93 591.97-6.01 592.24-5.08 592.65-4.35 593.07-3.61 593.64-3.16 594.21-2.71 594.97-2.71L594.97-2.71Q595.31-2.71 595.68-2.82 596.05-2.93 596.41-3.2L596.41-3.2Q597.05-3.71 597.85-4.61L597.85-4.61Q598.54-5.4 599.44-6.64 600.34-7.89 601.42-9.79L601.42-9.79ZM596.88-21.51L596.88-21.51Q596.58-21.85 596.12-21.95 595.65-22.05 595.13-21.9 594.6-21.75 594.1-21.34 593.6-20.92 593.26-20.24L593.26-20.24Q592.77-19.26 592.19-17.44 591.6-15.63 591.36-13.26L591.36-13.26Q592.14-13.72 592.97-14.33 593.8-14.94 594.57-15.63 595.34-16.31 595.96-17.05 596.58-17.8 596.94-18.57 597.29-19.34 597.31-20.08 597.34-20.83 596.88-21.51ZM618.21-13.6L618.21-13.55Q618.09-12.16 617.99-10.42L617.99-10.42Q617.89-8.94 617.77-6.9 617.65-4.86 617.5-2.39L617.5-2.39 613.4 1.1Q613.94-3.88 614.34-8.4 614.74-12.92 614.74-17.31L614.74-17.31Q614.74-19.53 614.13-20.59 613.52-21.66 612.5-21.66L612.5-21.66Q611.42-21.66 610.01-20.56L610.01-20.56Q610.33-20.85 610.78-21.3 611.23-21.75 611.75-22.27 612.28-22.78 612.85-23.29 613.43-23.8 613.98-24.22 614.52-24.63 615.04-24.89 615.55-25.15 615.94-25.15L615.94-25.15Q616.89-25.15 617.41-24.61 617.92-24.07 618.16-23.29 618.41-22.51 618.46-21.66 618.5-20.8 618.5-20.19L618.5-20.19 618.5-19.04Q619.8-21.19 621.57-22.83 623.34-24.46 625.71-25.15L625.71-25.15Q626.22-25.29 626.71-25.23 627.2-25.17 627.68-25.04 628.17-24.9 628.72-24.76 629.27-24.61 629.91-24.61L629.91-24.61Q630.39-24.61 630.93-24.73 631.47-24.85 632.15-25.15L632.15-25.15Q631.44-24.44 630.76-23.75 630.08-23.07 629.4-22.52 628.73-21.97 628.09-21.59 627.44-21.22 626.85-21.14L626.85-21.14Q626.22-21.07 625.64-21.23 625.07-21.39 624.47-21.57 623.87-21.75 623.22-21.84 622.56-21.92 621.8-21.7L621.8-21.7Q621.29-21.53 620.79-20.76 620.29-20 619.81-18.86 619.33-17.72 618.93-16.35 618.53-14.97 618.21-13.6L618.21-13.6Z" opacity="1" transform="matrix(1,0,0,1,0,0)" fill="#000000" class="slogan-text-1" data-fill-palette-color="secondary" id="text-1"></path></svg></g></svg></g></svg></g></svg></g><g transform="matrix(1,0,0,1,83.21900389981982,0)"><svg viewBox="0 0 229.08199220036033 165.79247230552977" height="165.79247230552977" width="229.08199220036033"><g><svg xmlns="http://www.w3.org/2000/svg" xmlns:xlink="http://www.w3.org/1999/xlink" version="1.1" x="8" y="0" viewBox="1.879 7.509 94.65100011704294 73.645" enable-background="new 0 0 100 100" xml:space="preserve" height="165.79247230552977" width="213.08199220036033" class="icon-icon-0" data-fill-palette-color="accent" id="icon-0"><g fill="#000000" data-fill-palette-color="accent"><g fill="#000000" data-fill-palette-color="accent"><path fill="#000000" d="M84.406 36.305C84.406 44.176 78.026 55.038 70.156 55.038S55.905 44.176 55.905 36.305 62.285 22.054 70.156 22.054 84.406 28.435 84.406 36.305" data-fill-palette-color="accent"></path><path fill="#000000" d="M80.929 51.147C78.053 54.841 74.284 57.452 70.156 57.452S62.259 54.841 59.382 51.147C50.188 54.902 43.78 62.724 43.78 68.052 43.78 75.288 55.589 81.154 70.155 81.154S96.53 75.288 96.53 68.052C96.531 62.724 90.124 54.902 80.929 51.147" data-fill-palette-color="accent"></path></g><g fill="#000000" data-fill-palette-color="accent"><path fill="#000000" d="M52.504 25.267C52.504 35.075 44.554 48.611 34.746 48.611S16.988 35.075 16.988 25.267 24.938 7.509 34.746 7.509 52.504 15.459 52.504 25.267" data-fill-palette-color="accent"></path><g fill="#000000" data-fill-palette-color="accent"><path fill="#000000" d="M40.673 68.276C40.673 62.366 47.729 53.718 57.877 49.484A39.3 39.3 0 0 0 48.171 43.762C44.588 48.365 39.891 51.619 34.746 51.619S24.905 48.365 21.321 43.762C9.864 48.441 1.879 58.188 1.879 64.828 1.879 73.845 16.594 81.154 34.746 81.154 40.437 81.154 45.789 80.435 50.457 79.171 44.452 76.49 40.673 72.603 40.673 68.276" data-fill-palette-color="accent"></path></g></g></g></svg></g></svg></g><g><rect width="47.85402227130268" height="5.835048006493519" y="158.95742429903626" x="312.30099610018016" fill="#000000" data-fill-palette-color="accent"></rect><rect width="47.85402227130268" height="5.835048006493519" y="158.95742429903626" x="35.36498162851714" fill="#000000" data-fill-palette-color="accent"></rect><rect width="47.85402227130268" height="5.835048006493519" y="147.28732828604922" x="312.30099610018016" fill="#000000" data-fill-palette-color="accent"></rect><rect width="47.85402227130268" height="5.835048006493519" y="147.28732828604922" x="35.36498162851714" fill="#000000" data-fill-palette-color="accent"></rect></g></svg></g><defs></defs></svg><rect width="324.7900367429657" height="247.2" fill="none" stroke="none" visibility="hidden"></rect></g></svg></g></svg>